inDegrees=no
num_controls=7
num_derivatives=13
num_iterations=138
num_multipliers=7
num_parameters=0
num_slacks=7
num_states=26
objective=5.160972
objective_accelerations=0.728883
objective_balance=0.024760
objective_effort=0.233002
objective_height=4.054104
objective_ligament=0.120224
solver_duration=1531.791862
status=Solve_Succeeded
success=true
DataType=double
version=3
OpenSimVersion=4.4-2022-07-23-0e9fedc
endheader
time	/jointset/ground_pelvis/pelvis_tilt/value	/jointset/ground_pelvis/pelvis_tx/value	/jointset/ground_pelvis/pelvis_ty/value	/jointset/hip_l/hip_flexion_l/value	/jointset/hip_l/hip_adduction_l/value	/jointset/hip_l/hip_rotation_l/value	/jointset/back/lumbar_extension/value	/jointset/patellofemoral_l/patellar_flexion_l/value	/jointset/knee_l/knee_flexion_l/value	/jointset/knee_l/knee_adduction_l/value	/jointset/knee_l/knee_rotation_l/value	/jointset/ankle_l/ankle_angle_l/value	/jointset/subtalar_l/subtalar_angle_l/value	/jointset/ground_pelvis/pelvis_tilt/speed	/jointset/ground_pelvis/pelvis_tx/speed	/jointset/ground_pelvis/pelvis_ty/speed	/jointset/hip_l/hip_flexion_l/speed	/jointset/hip_l/hip_adduction_l/speed	/jointset/hip_l/hip_rotation_l/speed	/jointset/back/lumbar_extension/speed	/jointset/patellofemoral_l/patellar_flexion_l/speed	/jointset/knee_l/knee_flexion_l/speed	/jointset/knee_l/knee_adduction_l/speed	/jointset/knee_l/knee_rotation_l/speed	/jointset/ankle_l/ankle_angle_l/speed	/jointset/subtalar_l/subtalar_angle_l/speed	/forceset/tau_hip_flexion_l	/forceset/tau_hip_adduction_l	/forceset/tau_hip_rotation_l	/forceset/tau_knee_flexion_l	/forceset/tau_ankle_angle_l	/forceset/tau_subtalar_angle_l	/forceset/tau_lumbar_extension	lambda_cid13_p0	lambda_cid13_p1	lambda_cid13_p2	lambda_cid13_p3	lambda_cid13_p4	lambda_cid13_p5	lambda_cid14_p0	/jointset/ground_pelvis/pelvis_tilt/accel	/jointset/ground_pelvis/pelvis_tx/accel	/jointset/ground_pelvis/pelvis_ty/accel	/jointset/hip_l/hip_flexion_l/accel	/jointset/hip_l/hip_adduction_l/accel	/jointset/hip_l/hip_rotation_l/accel	/jointset/back/lumbar_extension/accel	/jointset/patellofemoral_l/patellar_flexion_l/accel	/jointset/knee_l/knee_flexion_l/accel	/jointset/knee_l/knee_adduction_l/accel	/jointset/knee_l/knee_rotation_l/accel	/jointset/ankle_l/ankle_angle_l/accel	/jointset/subtalar_l/subtalar_angle_l/accel	gamma_cid13_p0	gamma_cid13_p1	gamma_cid13_p2	gamma_cid13_p3	gamma_cid13_p4	gamma_cid13_p5	gamma_cid14_p0
1.5	-0.5564274144004789	-0.05128434539516537	0.7822793342087482	1.245184445737884	-0.3415882039530615	-0.1095266728252252	-0.3465460661227244	0.6070864484001018	0.6070864484000533	-0.03982179274275371	-0.1743296718724743	0.01883176409382429	0.08623702906086675	1.084301935203317	0.5076493639022867	0.5172793832188108	-2.922968377356225	0.01336151428482978	-0.5487484019138208	0.5962515604348465	-1.648179753185689	-1.648179753185683	-0.1822099824111096	0.007049525548796937	0.08420254709293347	0.04586426595116045	-0.20395232393119	0.009839199924137919	0.003341538203872729	-0.07462685384057377	0.04334868871865031	0.01969662571646353	0.1668921587880382	-9.292110751172297	-8.441106735526557	2.793906417596981	-8.156719732890428	-429.2427933483308	-66.76793033986877	-18.68906888106206	0.9061217820763089	0.9256754927636967	-0.6522252867845586	-1.816287069612494	0.3100016395051695	-0.1421984181548559	1.932977109764885	-0.6553038197886567	-0.655303819788655	-0.3588072386958153	0.2560604038832904	0.227788835943519	0.394496279316624	-1.674922045235172e-07	2.051874388577681e-06	1.000562733637448e-06	4.510689922701747e-07	1.536255974155249e-07	-1.490786504626018e-07	1.779175490599548e-07
1.51	-0.5455399192782784	-0.04616217031240518	0.7874184658293607	1.215866730363595	-0.3414397889506259	-0.1150248276039714	-0.3404888005407476	0.5905739263188654	0.5905739263188351	-0.04166109604549766	-0.1742504319473165	0.01968511468072906	0.08671471248624975	1.093018529768252	0.5167123741787144	0.5104346019120017	-2.940169080749901	0.01632514573697327	-0.5508159291939455	0.615112017393974	-1.654112515570718	-1.654112515570769	-0.185638286380675	0.00882129427837053	0.08646660998472223	0.04967664610594866	-0.1969511388731615	0.009611939439241829	0.003746517255030308	-0.07273261000256274	0.03992507775138757	0.01850217080992604	0.1616701487631577	-10.24250796708805	-7.984221671930941	2.981810765669979	-7.362845397312061	-425.108571075167	-66.2158348196008	-19.28310647463149	0.8276428936129219	0.885713922938867	-0.7174254206405277	-1.611120782159758	0.2896208534931426	-0.2289171404254864	1.849149204025507	-0.5304742520562225	-0.5304742520646213	-0.3325159986010126	0.1412611683946122	0.2256258373234021	0.3747815313834553	-1.814809346478911e-07	2.110465978502076e-06	1.043839273557472e-06	4.566287238544964e-07	1.511691858549233e-07	-1.22717892083971e-07	1.724536528092751e-07
1.52	-0.5345706152904476	-0.04095154510130936	0.7924857854633026	1.186389176193785	-0.3412617222425842	-0.1205416351070164	-0.3342456165461719	0.5740084342529437	0.5740084342529225	-0.0435342171924489	-0.1741527691226773	0.02056108806085695	0.08723055424274531	1.100663708329623	0.5253393895694135	0.5029169858847187	-2.954936136460161	0.01929185540608618	-0.5524789467734381	0.6334352429546543	-1.658773750123594	-1.658773750123701	-0.1889735512508056	0.01073410544395265	0.08872710573758415	0.05349593217367786	-0.1899499538151354	0.009384678954342258	0.004151496306142304	-0.07083836616455623	0.03650146678412151	0.01730771590338451	0.1564481387382775	-11.19686012789079	-7.524469930815523	3.166774448871231	-6.543249109148249	-421.025795524626	-65.67706627856846	-19.85814336195212	0.6918385813637566	0.8384765156179521	-0.7867922308793462	-1.329557532929255	0.3106172828990585	-0.06129647802838484	1.825530830075452	-0.4009982533579335	-0.4009982533579323	-0.3401994188088467	0.2842688910849963	0.2270754081581265	0.3958774619048157	-1.951707556611779e-07	2.165322741964356e-06	1.083455770194834e-06	4.604040423002201e-07	1.477109656506311e-07	-9.572287697885515e-08	1.665238296675746e-07
1.53	-0.5235302435800898	-0.03565690699670725	0.7974746378744506	1.156776230108059	-0.3410538583743524	-0.1260732964925524	-0.3278221075679968	0.55740281402199	0.5574028140219588	-0.04543991794198635	-0.1740354547118727	0.02145973051306677	0.08778477054898073	1.107224226136101	0.5335063965823259	0.4947476882591618	-2.967228996562663	0.02228111954568838	-0.5537919462405657	0.6511587809751191	-1.662125139315969	-1.662125139315972	-0.1921466822556783	0.01274147588344918	0.091003641035366	0.05734921308751534	-0.1829197765749534	0.009055767101715361	0.004470262009765908	-0.06907930113928583	0.03333620566726911	0.01605664328360688	0.1511687823766691	-12.07864491566755	-7.042720073553885	3.336677344054977	-5.782703975960609	-417.0810201196367	-65.11721285814778	-20.41101903989862	0.6101897131312217	0.7936302366974131	-0.8478415878360033	-1.115545431686785	0.2926182907920312	-0.1569921975715362	1.729599532266624	-0.2684670713367424	-0.2684670713210643	-0.3023960607855911	0.160987351793546	0.2283355209562229	0.3798503474547449	-2.085429857439347e-07	2.216211252310641e-06	1.119183470844368e-06	4.622834217861835e-07	1.431883237624177e-07	-6.805396410184897e-08	1.600989592041644e-07
1.54	-0.5124298604251002	-0.03028303533346208	0.8023786286974546	1.127053076384752	-0.3408161944024644	-0.1316162259760621	-0.3212245963607704	0.5407704283352788	0.5407704283352417	-0.04737665522546233	-0.1738976633503928	0.02238121690432801	0.08837747905262083	1.112665997256237	0.5411861012980272	0.485944668255909	-2.976977663976207	0.02525187613733931	-0.5547325663683574	0.6682356887649689	-1.664126841274721	-1.664126841274619	-0.1951808580389157	0.01482949557940858	0.0932958935478676	0.06119437165461383	-0.1758895993347687	0.00872685524909257	0.004789027713401525	-0.06732023611401758	0.0301709445504161	0.01480557066383312	0.145889426015063	-12.96524160741246	-6.556793565910509	3.502105883259004	-4.987084087773214	-413.1950071768321	-64.56471093967379	-20.93858153801623	0.468089244095415	0.7410160561757072	-0.9135367064185348	-0.8207189951375465	0.3069157733088048	0.01317938983877357	1.696204783952463	-0.131060806633206	-0.1310608066332089	-0.3124083744818084	0.3003987423775688	0.2302188511020599	0.394252992557014	-1.88995899793871e-07	2.129929314356407e-06	9.49081714642786e-07	4.332877978567178e-07	1.794840935969227e-07	-4.680068937135605e-08	1.666307394331954e-07
1.55	-0.5012806130398765	-0.02483492825873266	0.8071915146308642	1.097245079915709	-0.3405491589996926	-0.1371652817501746	-0.3144598706682024	0.5241246444849427	0.5241246444849464	-0.04934417471277713	-0.1737374785962001	0.02332550515267464	0.08900826871362533	1.116990002678914	0.5483396247510612	0.4765342559836748	-2.984176004985343	0.02815440535547413	-0.5550292935482591	0.6845791993903527	-1.664798466312851	-1.664798466312739	-0.1982862495136774	0.01720872428029952	0.0955568798965559	0.06496250675092659	-0.168943707809605	0.008346846807655444	0.005040530074972117	-0.06550926876396024	0.02692630554216799	0.01353573189496863	0.1406181334521529	-13.89067192726294	-6.055457002796218	3.664551640540088	-4.131676446592842	-409.4981518757588	-63.99992785826224	-21.43763875437107	0.3855394589941993	0.6882337247405423	-0.9694710336215001	-0.6025393104055983	0.2814759461098733	-0.04355299050161297	1.583886648105923	-0.0005339830884294485	-0.0005339830869281789	-0.3037381744844213	0.2068560670031251	0.2233486296663126	0.3676244470569621	-1.315200366755596e-07	1.885603164229847e-06	5.418286277214514e-07	3.687188004268685e-07	2.628097725902091e-07	-3.293934554880187e-08	1.880908345904729e-07
1.56	-0.4900939289468989	-0.01931814330249821	0.8119073609323524	1.067378470505254	-0.3402531874147307	-0.1427157956398048	-0.3075356173801257	0.5074790802580896	0.5074790802581309	-0.05134157484294707	-0.1735534673283838	0.02429226528509097	0.08967664586137064	1.120153338807211	0.5549216775990349	0.4665367418716063	-2.988700252258636	0.0310391125753707	-0.5550241894720399	0.7001412078667193	-1.664082916578405	-1.664082916578283	-0.2011569866088823	0.01959479830352112	0.0977902703618076	0.06871186900278141	-0.1619978162844384	0.007966838366221612	0.005292032436518671	-0.06369830141390442	0.02368166653391929	0.0122658931261077	0.1353468408892456	-14.82086939299894	-5.549694388023284	3.822189835668203	-3.245210770344556	-405.8596643269538	-63.45560896167189	-21.90721306305969	0.2359553852195913	0.6267219351636156	-1.030957074385398	-0.2859002479688162	0.3033513736611604	0.07354564106295122	1.539904354149036	0.1463741478819851	0.1463741478819874	-0.2654774985704463	0.3017678068436975	0.2246996744147272	0.3904984236654274	-8.990896277239535e-08	1.736721553575549e-06	2.4988401706874e-07	3.20936637347461e-07	3.369642910174255e-07	-1.358968848079427e-08	2.055751339556355e-07
